<svg width="8" height="16" viewBox="0 0 8 16" fill="none" xmlns="http://www.w3.org/2000/svg">
<path d="M2.23906 8.95208C2.10999 8.95208 2.00302 8.95208 1.89605 8.95208C1.40267 8.95192 0.909289 8.95563 0.41607 8.9503C0.121462 8.94708 0.0235281 8.86108 0.0207853 8.57954C0.013525 7.82156 0.0133638 7.06342 0.0211082 6.30544C0.0240123 6.02471 0.127593 5.93823 0.41849 5.93678C0.953981 5.93404 1.48947 5.93597 2.02496 5.93597C2.08966 5.93597 2.1542 5.93597 2.23922 5.93597C2.23922 5.84756 2.23809 5.77722 2.23938 5.70687C2.25197 5.02166 2.22696 4.33305 2.2852 3.65171C2.43138 1.93601 3.74921 0.694498 5.47249 0.629477C6.19352 0.602211 6.91617 0.618345 7.63817 0.62012C7.8776 0.620765 7.98053 0.7237 7.98183 0.96313C7.9857 1.679 7.98586 2.39503 7.98183 3.1109C7.98037 3.35468 7.8805 3.45165 7.61994 3.4581C7.13285 3.47004 6.64544 3.47037 6.15819 3.47763C5.59237 3.48602 5.36939 3.69947 5.35923 4.26545C5.34971 4.79981 5.35713 5.3345 5.35713 5.88838C5.43248 5.89193 5.49573 5.89758 5.55897 5.89758C6.17868 5.89822 6.79839 5.89741 7.4181 5.89822C7.8221 5.8987 7.91035 5.98567 7.91067 6.38176C7.91132 7.09166 7.9118 7.80172 7.91035 8.51162C7.90971 8.84414 7.82742 8.9282 7.49425 8.92965C6.85647 8.93223 6.21869 8.93062 5.58107 8.93078C5.51557 8.93078 5.45023 8.93078 5.35794 8.93078C5.35794 9.01952 5.35794 9.09551 5.35794 9.1715C5.35794 11.0547 5.3581 12.9378 5.35794 14.821C5.35794 15.3278 5.29873 15.3859 4.78534 15.386C4.09351 15.3862 3.40152 15.3867 2.70969 15.3859C2.32748 15.3854 2.23938 15.2986 2.23938 14.9212C2.23874 13.0137 2.23906 11.1065 2.23906 9.19925C2.23906 9.12778 2.23906 9.0563 2.23906 8.95208Z" fill="white"/>
</svg>
