<svg width="8" height="16" viewBox="0 0 8 16" fill="none" xmlns="http://www.w3.org/2000/svg">
<path d="M2.23906 8.9074C2.10999 8.9074 2.00302 8.9074 1.89605 8.9074C1.40267 8.90724 0.909289 8.91095 0.41607 8.90563C0.121462 8.9024 0.0235281 8.8164 0.0207853 8.53486C0.013525 7.77689 0.0133638 7.01875 0.0211082 6.26077C0.0240123 5.98003 0.127593 5.89356 0.41849 5.8921C0.953981 5.88936 1.48947 5.8913 2.02496 5.8913C2.08966 5.8913 2.1542 5.8913 2.23922 5.8913C2.23922 5.80288 2.23809 5.73254 2.23938 5.66219C2.25197 4.97698 2.22696 4.28838 2.2852 3.60703C2.43138 1.89134 3.74921 0.64982 5.47249 0.5848C6.19352 0.557533 6.91617 0.573667 7.63817 0.575442C7.8776 0.576087 7.98053 0.679023 7.98183 0.918452C7.9857 1.63432 7.98586 2.35035 7.98183 3.06622C7.98037 3.31001 7.8805 3.40697 7.61994 3.41343C7.13285 3.42536 6.64544 3.42569 6.15819 3.43295C5.59237 3.44134 5.36939 3.65479 5.35923 4.22077C5.34971 4.75514 5.35713 5.28982 5.35713 5.8437C5.43248 5.84725 5.49573 5.8529 5.55897 5.8529C6.17868 5.85354 6.79839 5.85274 7.4181 5.85354C7.8221 5.85403 7.91035 5.94099 7.91067 6.33708C7.91132 7.04698 7.9118 7.75704 7.91035 8.46694C7.90971 8.79946 7.82742 8.88352 7.49425 8.88497C6.85647 8.88756 6.21869 8.88594 5.58107 8.8861C5.51557 8.8861 5.45023 8.8861 5.35794 8.8861C5.35794 8.97484 5.35794 9.05083 5.35794 9.12682C5.35794 11.01 5.3581 12.8932 5.35794 14.7763C5.35794 15.2831 5.29873 15.3412 4.78534 15.3413C4.09351 15.3415 3.40152 15.342 2.70969 15.3412C2.32748 15.3407 2.23938 15.2539 2.23938 14.8765C2.23874 12.969 2.23906 11.0618 2.23906 9.15457C2.23906 9.0831 2.23906 9.01163 2.23906 8.9074Z" fill="#4A8780"/>
</svg>
