<svg width="154" height="27" viewBox="0 0 154 27" fill="none" xmlns="http://www.w3.org/2000/svg">
<path d="M9.2 26.56C8.29333 26.56 7.58667 26.3067 7.08 25.8C6.6 25.2667 6.33333 24.2667 6.28 22.8C6.25333 21.2267 6.17333 19.6667 6.04 18.12C5.90667 16.5733 5.69333 15.1067 5.4 13.72C5 11.6933 4.45333 9.86667 3.76 8.24C3.06667 6.61333 2.09333 5.21333 0.84 4.04C0.626667 3.82667 0.453333 3.62667 0.32 3.44C0.186667 3.25333 0.12 3.04 0.12 2.8C0.12 2.24 0.413333 1.70667 1 1.2C1.58667 0.666665 2.28 0.399998 3.08 0.399998C4.01333 0.399998 4.81333 0.799999 5.48 1.6C6.14667 2.4 6.72 3.52 7.2 4.96C7.76 6.42667 8.2 8.02667 8.52 9.76C8.84 11.4933 9.05333 13.2667 9.16 15.08C9.29333 16.8667 9.36 18.6 9.36 20.28C9.36 20.8667 9.44 21.2533 9.6 21.44C9.76 21.6267 10.04 21.72 10.44 21.72C11.32 21.72 12.1867 21.4533 13.04 20.92C13.92 20.3867 14.7067 19.6667 15.4 18.76C16.12 17.8267 16.6933 16.8 17.12 15.68C17.5467 14.56 17.7733 13.4267 17.8 12.28C17.8267 11.08 17.6133 9.92 17.16 8.8C16.7333 7.65333 16.1733 6.68 15.48 5.88C15.2933 5.66667 15.1467 5.48 15.04 5.32C14.96 5.13333 14.92 4.94667 14.92 4.76C14.92 4.33333 15.0933 3.92 15.44 3.52C15.7867 3.12 16.1867 2.78667 16.64 2.52C17.0933 2.25333 17.48 2.12 17.8 2.12C18.4667 2.12 19.0267 2.61333 19.48 3.6C19.96 4.56 20.36 5.73333 20.68 7.12C21.1333 8.88 21.4533 10.8533 21.64 13.04C21.8267 15.2267 21.92 17.5333 21.92 19.96C21.92 20.6267 21.9867 21.08 22.12 21.32C22.2533 21.56 22.5467 21.68 23 21.68C23.96 21.68 24.8933 21.3333 25.8 20.64C26.7067 19.9467 27.5067 19 28.2 17.8C28.92 16.5733 29.48 15.1867 29.88 13.64C30.3067 12.0667 30.52 10.4133 30.52 8.68C30.52 7.37333 30.4133 6.32 30.2 5.52C30.0133 4.69333 29.8267 4.10666 29.64 3.76C29.3733 3.25333 29.24 2.82667 29.24 2.48C29.24 2.08 29.4133 1.70666 29.76 1.36C30.1333 0.986664 30.5733 0.679998 31.08 0.439998C31.5867 0.199999 32.0267 0.0799999 32.4 0.0799999C32.9867 0.0799999 33.4 0.333333 33.64 0.84C33.9067 1.32 34.0667 1.92 34.12 2.64C34.2 3.36 34.24 4.04 34.24 4.68C34.24 6.52 34.04 8.45333 33.64 10.48C33.2667 12.48 32.72 14.44 32 16.36C31.28 18.2533 30.4133 19.9733 29.4 21.52C28.4133 23.04 27.2933 24.2667 26.04 25.2C24.7867 26.1067 23.44 26.56 22 26.56C21.04 26.56 20.3333 26.3467 19.88 25.92C19.4267 25.4933 19.1333 24.8933 19 24.12C18.8667 23.3467 18.8 22.44 18.8 21.4C18.8 20.7867 18.8 20.2133 18.8 19.68C18.8267 19.12 18.84 18.6133 18.84 18.16C17.6133 20.9067 16.1333 23 14.4 24.44C12.6667 25.8533 10.9333 26.56 9.2 26.56Z" fill="#00FFF0"/>
<path d="M38.0766 15.89C38.0766 14.31 38.5566 13.09 39.5166 12.23C40.4766 11.37 41.7266 10.94 43.2666 10.94C44.8066 10.94 46.0466 11.38 46.9866 12.26C47.9266 13.12 48.3966 14.33 48.3966 15.89V17.69C48.3966 18.55 47.9866 18.98 47.1666 18.98H40.6866C40.5066 18.98 40.3566 18.92 40.2366 18.8C40.1366 18.68 40.0866 18.54 40.0866 18.38V18.14C40.0866 17.98 40.1366 17.84 40.2366 17.72C40.3566 17.6 40.5066 17.54 40.6866 17.54H46.9866V15.92C46.9866 14.78 46.6366 13.91 45.9366 13.31C45.2366 12.69 44.3466 12.38 43.2666 12.38C42.1866 12.38 41.2866 12.69 40.5666 13.31C39.8666 13.91 39.5166 14.78 39.5166 15.92V21.08C39.5166 22.22 39.8666 23.1 40.5666 23.72C41.2866 24.32 42.1766 24.62 43.2366 24.62C44.3166 24.62 45.2066 24.33 45.9066 23.75C46.6266 23.15 46.9866 22.3 46.9866 21.2C46.9866 21.04 47.0366 20.9 47.1366 20.78C47.2566 20.66 47.3966 20.6 47.5566 20.6H47.7966C47.9766 20.6 48.1166 20.66 48.2166 20.78C48.3366 20.9 48.3966 21.04 48.3966 21.2C48.3766 22.74 47.8966 23.94 46.9566 24.8C46.0166 25.64 44.7866 26.06 43.2666 26.06C41.7466 26.06 40.4966 25.63 39.5166 24.77C38.5566 23.89 38.0766 22.67 38.0766 21.11V15.89ZM52.7536 4.1H52.9936C53.1536 4.1 53.2936 4.16 53.4136 4.28C53.5336 4.38 53.5936 4.51 53.5936 4.67V12.44C54.6336 11.44 55.9336 10.94 57.4936 10.94C59.0536 10.94 60.2736 11.38 61.1536 12.26C62.0536 13.12 62.5036 14.33 62.5036 15.89V21.11C62.5036 22.69 62.0236 23.91 61.0636 24.77C60.1036 25.63 58.8536 26.06 57.3136 26.06C55.7736 26.06 54.5236 25.63 53.5636 24.77C52.6236 23.89 52.1536 22.67 52.1536 21.11V4.67C52.1536 4.51 52.2136 4.38 52.3336 4.28C52.4536 4.16 52.5936 4.1 52.7536 4.1ZM57.5536 12.38C55.8336 12.38 54.5136 12.99 53.5936 14.21V21.08C53.5936 22.22 53.9436 23.1 54.6436 23.72C55.3436 24.32 56.2336 24.62 57.3136 24.62C58.3936 24.62 59.2836 24.32 59.9836 23.72C60.7036 23.12 61.0636 22.24 61.0636 21.08V15.95C61.0636 14.79 60.7436 13.91 60.1036 13.31C59.4636 12.69 58.6136 12.38 57.5536 12.38ZM95.8523 10.94C96.2323 10.94 96.4223 11.14 96.4223 11.54V11.75C96.4223 11.91 96.3623 12.05 96.2423 12.17C96.1423 12.29 96.0123 12.35 95.8523 12.35C94.7123 12.35 93.8023 12.64 93.1223 13.22C92.4423 13.8 92.1023 14.69 92.1023 15.89V25.4C92.1023 25.58 92.0423 25.73 91.9223 25.85C91.8023 25.95 91.6623 26 91.5023 26H91.2923C91.1323 26 90.9923 25.95 90.8723 25.85C90.7523 25.73 90.6923 25.58 90.6923 25.4V15.89C90.6923 14.25 91.1523 13.02 92.0723 12.2C92.9923 11.36 94.2523 10.94 95.8523 10.94ZM99.4828 15.89C99.4828 14.31 99.9628 13.09 100.923 12.23C101.883 11.37 103.133 10.94 104.673 10.94C106.213 10.94 107.453 11.38 108.393 12.26C109.333 13.12 109.803 14.33 109.803 15.89V17.69C109.803 18.55 109.393 18.98 108.573 18.98H102.093C101.913 18.98 101.763 18.92 101.643 18.8C101.543 18.68 101.493 18.54 101.493 18.38V18.14C101.493 17.98 101.543 17.84 101.643 17.72C101.763 17.6 101.913 17.54 102.093 17.54H108.393V15.92C108.393 14.78 108.043 13.91 107.343 13.31C106.643 12.69 105.753 12.38 104.673 12.38C103.593 12.38 102.693 12.69 101.973 13.31C101.273 13.91 100.923 14.78 100.923 15.92V21.08C100.923 22.22 101.273 23.1 101.973 23.72C102.693 24.32 103.583 24.62 104.643 24.62C105.723 24.62 106.613 24.33 107.313 23.75C108.033 23.15 108.393 22.3 108.393 21.2C108.393 21.04 108.443 20.9 108.543 20.78C108.663 20.66 108.803 20.6 108.963 20.6H109.203C109.383 20.6 109.523 20.66 109.623 20.78C109.743 20.9 109.803 21.04 109.803 21.2C109.783 22.74 109.303 23.94 108.363 24.8C107.423 25.64 106.193 26.06 104.673 26.06C103.153 26.06 101.903 25.63 100.923 24.77C99.9628 23.89 99.4828 22.67 99.4828 21.11V15.89ZM114.28 15.89C114.28 14.31 114.76 13.09 115.72 12.23C116.68 11.37 117.93 10.94 119.47 10.94C121.01 10.94 122.25 11.38 123.19 12.26C124.13 13.12 124.6 14.33 124.6 15.89V22.49C124.6 23.27 124.66 23.81 124.78 24.11C124.92 24.39 125.18 24.58 125.56 24.68L125.89 24.77C126.19 24.83 126.34 24.96 126.34 25.16V25.49C126.34 25.83 126.14 26 125.74 26C124.76 26 124.09 25.71 123.73 25.13C123.37 24.55 123.19 23.66 123.19 22.46V15.89C123.19 14.75 122.84 13.88 122.14 13.28C121.44 12.66 120.55 12.35 119.47 12.35C118.39 12.35 117.49 12.66 116.77 13.28C116.05 13.88 115.69 14.75 115.69 15.89V21.02C115.69 22.2 115.98 23.09 116.56 23.69C117.16 24.29 118.01 24.59 119.11 24.59C120.23 24.59 121.15 24.14 121.87 23.24C122.01 23.06 122.2 22.97 122.44 22.97C122.7 22.97 122.88 23.12 122.98 23.42C123.04 23.66 123.01 23.87 122.89 24.05C122.03 25.35 120.79 26 119.17 26C117.57 26 116.35 25.57 115.51 24.71C114.69 23.85 114.28 22.63 114.28 21.05V15.89ZM134.647 10.94C136.147 10.94 137.297 11.34 138.097 12.14C138.897 12.92 139.297 14.07 139.297 15.59V25.4C139.297 25.8 139.107 26 138.727 26H138.487C138.087 26 137.887 25.8 137.887 25.4V15.92C137.887 13.54 136.797 12.35 134.617 12.35C133.477 12.35 132.507 12.8 131.707 13.7C131.487 13.88 131.297 13.97 131.137 13.97C130.777 13.97 130.587 13.77 130.567 13.37C130.567 13.21 130.607 13.05 130.687 12.89C131.107 12.31 131.667 11.84 132.367 11.48C133.067 11.12 133.827 10.94 134.647 10.94ZM129.577 11.03H129.817C129.977 11.03 130.117 11.09 130.237 11.21C130.357 11.31 130.417 11.45 130.417 11.63V25.4C130.417 25.58 130.357 25.73 130.237 25.85C130.117 25.95 129.977 26 129.817 26H129.577C129.417 26 129.277 25.95 129.157 25.85C129.037 25.73 128.977 25.58 128.977 25.4V11.63C128.977 11.45 129.037 11.31 129.157 11.21C129.277 11.09 129.417 11.03 129.577 11.03ZM143.813 14.93C143.813 13.79 144.193 12.84 144.953 12.08C145.733 11.32 146.883 10.94 148.403 10.94C149.943 10.94 151.123 11.32 151.943 12.08C152.763 12.82 153.173 13.92 153.173 15.38C153.173 15.54 153.113 15.68 152.993 15.8C152.893 15.9 152.763 15.95 152.603 15.95H152.333C152.173 15.95 152.033 15.9 151.913 15.8C151.813 15.68 151.763 15.55 151.763 15.41C151.763 13.39 150.633 12.38 148.373 12.38C147.333 12.38 146.543 12.63 146.003 13.13C145.483 13.63 145.223 14.26 145.223 15.02C145.223 15.78 145.473 16.39 145.972 16.85C146.493 17.29 147.463 17.65 148.883 17.93C150.303 18.21 151.413 18.65 152.213 19.25C153.013 19.85 153.413 20.75 153.413 21.95C153.413 23.13 152.973 24.12 152.093 24.92C151.233 25.7 150.023 26.09 148.463 26.09C146.923 26.09 145.673 25.7 144.713 24.92C143.753 24.12 143.273 22.95 143.273 21.41C143.273 20.99 143.473 20.78 143.873 20.78H144.113C144.493 20.78 144.683 20.98 144.683 21.38C144.683 23.56 145.973 24.65 148.553 24.65C149.713 24.65 150.573 24.39 151.133 23.87C151.713 23.33 152.003 22.67 152.003 21.89C152.003 21.11 151.703 20.55 151.103 20.21C150.503 19.85 149.453 19.51 147.953 19.19C146.473 18.87 145.413 18.36 144.773 17.66C144.133 16.96 143.813 16.05 143.813 14.93Z" fill="white"/>
<path d="M72.6717 26.52C71.6851 26.52 70.7784 26.4267 69.9517 26.24C69.1251 26.0533 68.4451 25.7067 67.9117 25.2C67.5117 24.8267 67.2451 24.4133 67.1117 23.96C66.9784 23.48 66.9117 22.96 66.9117 22.4C66.9117 21.4933 66.9917 20.5867 67.1517 19.68C67.3917 18.1067 67.6051 16.4133 67.7917 14.6C67.9784 12.7867 68.0717 11.1067 68.0717 9.56C68.0717 9.08 68.0451 8.53333 67.9917 7.92C67.9651 7.30667 67.9117 6.73333 67.8317 6.2C67.6451 6.28 67.4584 6.36 67.2717 6.44C67.1117 6.49333 66.9651 6.52 66.8317 6.52C66.5917 6.52 66.4317 6.4 66.3517 6.16C66.2717 5.92 66.2317 5.65333 66.2317 5.36C66.2317 4.58667 66.4051 3.93333 66.7517 3.4C67.1251 2.84 67.7251 2.34667 68.5517 1.92C69.4317 1.44 70.5784 1.02667 71.9917 0.679999C73.4317 0.306666 74.8851 0.119999 76.3517 0.119999C79.6851 0.119999 82.2984 1.10667 84.1917 3.08C86.1117 5.02667 87.0717 7.8 87.0717 11.4C87.0717 13.4533 86.7517 15.4 86.1117 17.24C85.4984 19.0533 84.5784 20.6667 83.3517 22.08C82.1251 23.4667 80.6184 24.56 78.8317 25.36C77.0451 26.1333 74.9917 26.52 72.6717 26.52ZM73.9517 22.04C75.1517 22.04 76.3517 21.8533 77.5517 21.48C78.7517 21.1067 79.8317 20.5467 80.7917 19.8C81.7784 19.0533 82.5651 18.1067 83.1517 16.96C83.7384 15.7867 84.0317 14.3867 84.0317 12.76C84.0317 10.92 83.6717 9.4 82.9517 8.2C82.2317 7 81.2717 6.10667 80.0717 5.52C78.8717 4.93333 77.5384 4.64 76.0717 4.64C75.2717 4.64 74.4717 4.70667 73.6717 4.84C72.8984 4.97333 72.2851 5.10666 71.8317 5.24C71.8051 6.46667 71.7251 7.66667 71.5917 8.84C71.4851 9.98667 71.3517 11.1067 71.1917 12.2C71.0317 13.3467 70.8984 14.4667 70.7917 15.56C70.7117 16.6533 70.6717 17.7333 70.6717 18.8C70.6717 20.1333 70.9384 21.0133 71.4717 21.44C72.0317 21.84 72.8584 22.04 73.9517 22.04Z" fill="#EB00FF"/>
</svg>
