<svg width="261" height="47" viewBox="0 0 261 47" fill="none" xmlns="http://www.w3.org/2000/svg">
<path d="M16.1 46.98C14.5133 46.98 13.2767 46.5367 12.39 45.65C11.55 44.7167 11.0833 42.9667 10.99 40.4C10.9433 37.6467 10.8033 34.9167 10.57 32.21C10.3367 29.5033 9.96333 26.9367 9.45 24.51C8.75 20.9633 7.79333 17.7667 6.58 14.92C5.36667 12.0733 3.66333 9.62333 1.47 7.57C1.09667 7.19666 0.793333 6.84666 0.56 6.52C0.326667 6.19333 0.21 5.82 0.21 5.4C0.21 4.42 0.723333 3.48667 1.75 2.6C2.77667 1.66666 3.99 1.2 5.39 1.2C7.02333 1.2 8.42333 1.9 9.59 3.3C10.7567 4.7 11.76 6.66 12.6 9.18C13.58 11.7467 14.35 14.5467 14.91 17.58C15.47 20.6133 15.8433 23.7167 16.03 26.89C16.2633 30.0167 16.38 33.05 16.38 35.99C16.38 37.0167 16.52 37.6933 16.8 38.02C17.08 38.3467 17.57 38.51 18.27 38.51C19.81 38.51 21.3267 38.0433 22.82 37.11C24.36 36.1767 25.7367 34.9167 26.95 33.33C28.21 31.6967 29.2133 29.9 29.96 27.94C30.7067 25.98 31.1033 23.9967 31.15 21.99C31.1967 19.89 30.8233 17.86 30.03 15.9C29.2833 13.8933 28.3033 12.19 27.09 10.79C26.7633 10.4167 26.5067 10.09 26.32 9.81C26.18 9.48333 26.11 9.15666 26.11 8.83C26.11 8.08333 26.4133 7.36 27.02 6.66C27.6267 5.96 28.3267 5.37667 29.12 4.91C29.9133 4.44333 30.59 4.21 31.15 4.21C32.3167 4.21 33.2967 5.07333 34.09 6.8C34.93 8.48 35.63 10.5333 36.19 12.96C36.9833 16.04 37.5433 19.4933 37.87 23.32C38.1967 27.1467 38.36 31.1833 38.36 35.43C38.36 36.5967 38.4767 37.39 38.71 37.81C38.9433 38.23 39.4567 38.44 40.25 38.44C41.93 38.44 43.5633 37.8333 45.15 36.62C46.7367 35.4067 48.1367 33.75 49.35 31.65C50.61 29.5033 51.59 27.0767 52.29 24.37C53.0367 21.6167 53.41 18.7233 53.41 15.69C53.41 13.4033 53.2233 11.56 52.85 10.16C52.5233 8.71333 52.1967 7.68666 51.87 7.08C51.4033 6.19333 51.17 5.44666 51.17 4.84C51.17 4.14 51.4733 3.48666 52.08 2.88C52.7333 2.22666 53.5033 1.69 54.39 1.27C55.2767 0.849999 56.0467 0.64 56.7 0.64C57.7267 0.64 58.45 1.08333 58.87 1.97C59.3367 2.81 59.6167 3.86 59.71 5.12C59.85 6.38 59.92 7.57 59.92 8.69C59.92 11.91 59.57 15.2933 58.87 18.84C58.2167 22.34 57.26 25.77 56 29.13C54.74 32.4433 53.2233 35.4533 51.45 38.16C49.7233 40.82 47.7633 42.9667 45.57 44.6C43.3767 46.1867 41.02 46.98 38.5 46.98C36.82 46.98 35.5833 46.6067 34.79 45.86C33.9967 45.1133 33.4833 44.0633 33.25 42.71C33.0167 41.3567 32.9 39.77 32.9 37.95C32.9 36.8767 32.9 35.8733 32.9 34.94C32.9467 33.96 32.97 33.0733 32.97 32.28C30.8233 37.0867 28.2333 40.75 25.2 43.27C22.1667 45.7433 19.1333 46.98 16.1 46.98Z" fill="#00FFF0"/>
<path d="M66.459 29.15C66.459 26.5167 67.259 24.4833 68.859 23.05C70.459 21.6167 72.5423 20.9 75.109 20.9C77.6757 20.9 79.7423 21.6333 81.309 23.1C82.8757 24.5333 83.659 26.55 83.659 29.15V32.15C83.659 33.5833 82.9757 34.3 81.609 34.3H70.809C70.509 34.3 70.259 34.2 70.059 34C69.8923 33.8 69.809 33.5667 69.809 33.3V32.9C69.809 32.6333 69.8923 32.4 70.059 32.2C70.259 32 70.509 31.9 70.809 31.9H81.309V29.2C81.309 27.3 80.7257 25.85 79.559 24.85C78.3923 23.8167 76.909 23.3 75.109 23.3C73.309 23.3 71.809 23.8167 70.609 24.85C69.4423 25.85 68.859 27.3 68.859 29.2V37.8C68.859 39.7 69.4423 41.1667 70.609 42.2C71.809 43.2 73.2923 43.7 75.059 43.7C76.859 43.7 78.3423 43.2167 79.509 42.25C80.709 41.25 81.309 39.8333 81.309 38C81.309 37.7333 81.3923 37.5 81.559 37.3C81.759 37.1 81.9923 37 82.259 37H82.659C82.959 37 83.1923 37.1 83.359 37.3C83.559 37.5 83.659 37.7333 83.659 38C83.6257 40.5667 82.8257 42.5667 81.259 44C79.6923 45.4 77.6423 46.1 75.109 46.1C72.5757 46.1 70.4923 45.3833 68.859 43.95C67.259 42.4833 66.459 40.45 66.459 37.85V29.15ZM90.9207 9.5H91.3207C91.5874 9.5 91.8207 9.6 92.0207 9.8C92.2207 9.96666 92.3207 10.1833 92.3207 10.45V23.4C94.054 21.7333 96.2207 20.9 98.8207 20.9C101.421 20.9 103.454 21.6333 104.921 23.1C106.421 24.5333 107.171 26.55 107.171 29.15V37.85C107.171 40.4833 106.371 42.5167 104.771 43.95C103.171 45.3833 101.087 46.1 98.5207 46.1C95.954 46.1 93.8707 45.3833 92.2707 43.95C90.704 42.4833 89.9207 40.45 89.9207 37.85V10.45C89.9207 10.1833 90.0207 9.96666 90.2207 9.8C90.4207 9.6 90.654 9.5 90.9207 9.5ZM98.9207 23.3C96.054 23.3 93.854 24.3167 92.3207 26.35V37.8C92.3207 39.7 92.904 41.1667 94.0707 42.2C95.2374 43.2 96.7207 43.7 98.5207 43.7C100.321 43.7 101.804 43.2 102.971 42.2C104.171 41.2 104.771 39.7333 104.771 37.8V29.25C104.771 27.3167 104.237 25.85 103.171 24.85C102.104 23.8167 100.687 23.3 98.9207 23.3ZM164.764 20.9C165.397 20.9 165.714 21.2333 165.714 21.9V22.25C165.714 22.5167 165.614 22.75 165.414 22.95C165.247 23.15 165.03 23.25 164.764 23.25C162.864 23.25 161.347 23.7333 160.214 24.7C159.08 25.6667 158.514 27.15 158.514 29.15V45C158.514 45.3 158.414 45.55 158.214 45.75C158.014 45.9167 157.78 46 157.514 46H157.164C156.897 46 156.664 45.9167 156.464 45.75C156.264 45.55 156.164 45.3 156.164 45V29.15C156.164 26.4167 156.93 24.3667 158.464 23C159.997 21.6 162.097 20.9 164.764 20.9ZM170.814 29.15C170.814 26.5167 171.614 24.4833 173.214 23.05C174.814 21.6167 176.898 20.9 179.464 20.9C182.031 20.9 184.098 21.6333 185.664 23.1C187.231 24.5333 188.014 26.55 188.014 29.15V32.15C188.014 33.5833 187.331 34.3 185.964 34.3H175.164C174.864 34.3 174.614 34.2 174.414 34C174.248 33.8 174.164 33.5667 174.164 33.3V32.9C174.164 32.6333 174.248 32.4 174.414 32.2C174.614 32 174.864 31.9 175.164 31.9H185.664V29.2C185.664 27.3 185.081 25.85 183.914 24.85C182.748 23.8167 181.264 23.3 179.464 23.3C177.664 23.3 176.164 23.8167 174.964 24.85C173.798 25.85 173.214 27.3 173.214 29.2V37.8C173.214 39.7 173.798 41.1667 174.964 42.2C176.164 43.2 177.648 43.7 179.414 43.7C181.214 43.7 182.698 43.2167 183.864 42.25C185.064 41.25 185.664 39.8333 185.664 38C185.664 37.7333 185.748 37.5 185.914 37.3C186.114 37.1 186.348 37 186.614 37H187.014C187.314 37 187.548 37.1 187.714 37.3C187.914 37.5 188.014 37.7333 188.014 38C187.981 40.5667 187.181 42.5667 185.614 44C184.048 45.4 181.998 46.1 179.464 46.1C176.931 46.1 174.848 45.3833 173.214 43.95C171.614 42.4833 170.814 40.45 170.814 37.85V29.15ZM195.476 29.15C195.476 26.5167 196.276 24.4833 197.876 23.05C199.476 21.6167 201.56 20.9 204.126 20.9C206.693 20.9 208.76 21.6333 210.326 23.1C211.893 24.5333 212.676 26.55 212.676 29.15V40.15C212.676 41.45 212.776 42.35 212.976 42.85C213.21 43.3167 213.643 43.6333 214.276 43.8L214.826 43.95C215.326 44.05 215.576 44.2667 215.576 44.6V45.15C215.576 45.7167 215.243 46 214.576 46C212.943 46 211.826 45.5167 211.226 44.55C210.626 43.5833 210.326 42.1 210.326 40.1V29.15C210.326 27.25 209.743 25.8 208.576 24.8C207.41 23.7667 205.926 23.25 204.126 23.25C202.326 23.25 200.826 23.7667 199.626 24.8C198.426 25.8 197.826 27.25 197.826 29.15V37.7C197.826 39.6667 198.31 41.15 199.276 42.15C200.276 43.15 201.693 43.65 203.526 43.65C205.393 43.65 206.926 42.9 208.126 41.4C208.36 41.1 208.676 40.95 209.076 40.95C209.51 40.95 209.81 41.2 209.976 41.7C210.076 42.1 210.026 42.45 209.826 42.75C208.393 44.9167 206.326 46 203.626 46C200.96 46 198.926 45.2833 197.526 43.85C196.16 42.4167 195.476 40.3833 195.476 37.75V29.15ZM229.421 20.9C231.921 20.9 233.838 21.5667 235.171 22.9C236.505 24.2 237.171 26.1167 237.171 28.65V45C237.171 45.6667 236.855 46 236.221 46H235.821C235.155 46 234.821 45.6667 234.821 45V29.2C234.821 25.2333 233.005 23.25 229.371 23.25C227.471 23.25 225.855 24 224.521 25.5C224.155 25.8 223.838 25.95 223.571 25.95C222.971 25.95 222.655 25.6167 222.621 24.95C222.621 24.6833 222.688 24.4167 222.821 24.15C223.521 23.1833 224.455 22.4 225.621 21.8C226.788 21.2 228.055 20.9 229.421 20.9ZM220.971 21.05H221.371C221.638 21.05 221.871 21.15 222.071 21.35C222.271 21.5167 222.371 21.75 222.371 22.05V45C222.371 45.3 222.271 45.55 222.071 45.75C221.871 45.9167 221.638 46 221.371 46H220.971C220.705 46 220.471 45.9167 220.271 45.75C220.071 45.55 219.971 45.3 219.971 45V22.05C219.971 21.75 220.071 21.5167 220.271 21.35C220.471 21.15 220.705 21.05 220.971 21.05ZM244.697 27.55C244.697 25.65 245.331 24.0667 246.597 22.8C247.897 21.5333 249.814 20.9 252.347 20.9C254.914 20.9 256.881 21.5333 258.247 22.8C259.614 24.0333 260.297 25.8667 260.297 28.3C260.297 28.5667 260.197 28.8 259.997 29C259.831 29.1667 259.614 29.25 259.347 29.25H258.897C258.631 29.25 258.397 29.1667 258.197 29C258.031 28.8 257.947 28.5833 257.947 28.35C257.947 24.9833 256.064 23.3 252.297 23.3C250.564 23.3 249.247 23.7167 248.347 24.55C247.481 25.3833 247.047 26.4333 247.047 27.7C247.047 28.9667 247.464 29.9833 248.297 30.75C249.164 31.4833 250.781 32.0833 253.147 32.55C255.514 33.0167 257.364 33.75 258.697 34.75C260.031 35.75 260.697 37.25 260.697 39.25C260.697 41.2167 259.964 42.8667 258.497 44.2C257.064 45.5 255.047 46.15 252.447 46.15C249.881 46.15 247.797 45.5 246.197 44.2C244.597 42.8667 243.797 40.9167 243.797 38.35C243.797 37.65 244.131 37.3 244.797 37.3H245.197C245.831 37.3 246.147 37.6333 246.147 38.3C246.147 41.9333 248.297 43.75 252.597 43.75C254.531 43.75 255.964 43.3167 256.897 42.45C257.864 41.55 258.347 40.45 258.347 39.15C258.347 37.85 257.847 36.9167 256.847 36.35C255.847 35.75 254.097 35.1833 251.597 34.65C249.131 34.1167 247.364 33.2667 246.297 32.1C245.231 30.9333 244.697 29.4167 244.697 27.55Z" fill="white"/>
<path d="M124.798 46.91C123.071 46.91 121.484 46.7467 120.038 46.42C118.591 46.0933 117.401 45.4867 116.468 44.6C115.768 43.9467 115.301 43.2233 115.068 42.43C114.834 41.59 114.718 40.68 114.718 39.7C114.718 38.1133 114.858 36.5267 115.138 34.94C115.558 32.1867 115.931 29.2233 116.258 26.05C116.584 22.8767 116.748 19.9367 116.748 17.23C116.748 16.39 116.701 15.4333 116.608 14.36C116.561 13.2867 116.468 12.2833 116.328 11.35C116.001 11.49 115.674 11.63 115.348 11.77C115.068 11.8633 114.811 11.91 114.578 11.91C114.158 11.91 113.878 11.7 113.738 11.28C113.598 10.86 113.528 10.3933 113.528 9.88C113.528 8.52667 113.831 7.38333 114.438 6.45C115.091 5.47 116.141 4.60666 117.588 3.86C119.128 3.02 121.134 2.29667 123.608 1.69C126.128 1.03667 128.671 0.709999 131.238 0.709999C137.071 0.709999 141.644 2.43667 144.958 5.89C148.318 9.29667 149.998 14.15 149.998 20.45C149.998 24.0433 149.438 27.45 148.318 30.67C147.244 33.8433 145.634 36.6667 143.488 39.14C141.341 41.5667 138.704 43.48 135.578 44.88C132.451 46.2333 128.858 46.91 124.798 46.91ZM127.038 39.07C129.138 39.07 131.238 38.7433 133.338 38.09C135.438 37.4367 137.328 36.4567 139.008 35.15C140.734 33.8433 142.111 32.1867 143.138 30.18C144.164 28.1267 144.678 25.6767 144.678 22.83C144.678 19.61 144.048 16.95 142.788 14.85C141.528 12.75 139.848 11.1867 137.748 10.16C135.648 9.13333 133.314 8.62 130.748 8.62C129.348 8.62 127.948 8.73666 126.548 8.97C125.194 9.20333 124.121 9.43666 123.328 9.67C123.281 11.8167 123.141 13.9167 122.908 15.97C122.721 17.9767 122.488 19.9367 122.208 21.85C121.928 23.8567 121.694 25.8167 121.508 27.73C121.368 29.6433 121.298 31.5333 121.298 33.4C121.298 35.7333 121.764 37.2733 122.698 38.02C123.678 38.72 125.124 39.07 127.038 39.07Z" fill="#EB00FF"/>
</svg>
