<svg width="71" height="72" viewBox="0 0 71 72" fill="none" xmlns="http://www.w3.org/2000/svg">
<path d="M68.5991 53.2389C65.8453 53.2389 63.1863 53.2389 60.4715 53.2389C60.4715 57.567 60.4715 61.8787 60.4715 66.231C63.1547 66.231 65.8127 66.231 68.6002 66.231C68.6002 65.7759 68.6013 65.322 68.6 64.8678C68.5983 64.316 68.7607 63.8615 69.402 63.8598C70.0305 63.8583 70.2212 64.2817 70.2193 64.8498C70.2131 66.6279 70.2234 68.4061 70.2138 70.1844C70.2101 70.8926 69.9429 71.1498 69.2439 71.1748C69.057 71.1815 68.8697 71.1765 68.6825 71.1765C52.2836 71.1765 35.8845 71.1767 19.4855 71.1757C19.205 71.1757 18.8683 71.2601 18.6579 71.1358C18.3785 70.9708 18.0275 70.6419 18.0226 70.3777C18.018 70.1176 18.3611 69.7689 18.638 69.6118C18.8724 69.4788 19.2307 69.5548 19.5341 69.5546C35.5588 69.5531 51.5835 69.5533 67.6082 69.5533C67.9063 69.5533 68.2042 69.5533 68.5501 69.5533C68.5501 68.9769 68.5501 68.4782 68.5501 67.952C46.2436 67.952 23.979 67.952 1.66646 67.952C1.66646 68.4707 1.66646 68.9698 1.66646 69.5533C1.9824 69.5533 2.25633 69.5533 2.53008 69.5533C6.10927 69.5533 9.68865 69.5525 13.2678 69.5548C13.5245 69.555 13.8436 69.4861 14.0229 69.6099C14.2925 69.7959 14.6377 70.1297 14.6289 70.3897C14.6199 70.6537 14.2413 70.9292 13.9816 71.1485C13.8838 71.2312 13.6651 71.1753 13.5015 71.1755C9.40759 71.1763 5.31371 71.1774 1.21983 71.1753C0.193647 71.1748 0.000897099 70.9787 0.000897099 69.9399C-0.000227901 61.517 -4.04008e-05 53.094 0.000897099 44.6711C0.0010846 43.6181 0.216897 43.4004 1.27196 43.3976C2.83309 43.3934 4.39402 43.3965 6.13946 43.3965C4.60871 41.6894 4.92634 39.7278 4.90421 37.8313C4.89671 37.1941 5.21471 36.881 5.85015 36.8868C5.94371 36.8878 6.03971 36.872 6.13046 36.8879C7.92934 37.2014 9.35433 36.6187 10.4028 35.1189C10.4688 35.0246 10.5648 34.9507 10.649 34.8695C11.1553 34.3813 11.6433 34.3048 11.988 34.6946C12.4361 35.2018 12.2195 35.6456 11.7885 36.0286C11.5335 36.2553 11.2526 36.4529 10.9833 36.6637C11.0343 36.7378 11.0851 36.8118 11.1361 36.8859C11.9679 36.8859 12.7996 36.8789 13.6312 36.8879C14.4277 36.8964 14.6803 37.139 14.6915 37.9398C14.703 38.7583 14.7911 39.5971 14.6465 40.3906C14.4633 41.3968 14.0793 42.3665 13.7821 43.3514C16.8073 43.3514 19.9927 43.3514 23.0767 43.3514C22.9785 42.2913 22.8826 41.2571 22.7825 40.1765C22.1874 40.061 21.2176 40.3475 21.2533 39.2827C21.2851 38.3317 22.1793 38.5779 22.7561 38.4661C22.7988 38.4043 22.845 38.3683 22.8481 38.3285C22.9653 36.8857 22.9648 36.8855 24.4411 36.8855C26.7337 36.8855 29.0263 36.8848 31.3188 36.8859C32.4703 36.8864 32.5997 37.01 32.6679 38.1513C32.6733 38.2413 32.6949 38.3302 32.7148 38.4566C33.3367 38.6002 34.316 38.3049 34.2521 39.3973C34.1981 40.3201 33.368 40.0871 32.7603 40.1645C32.6521 41.2224 32.5447 42.2737 32.4339 43.3567C34.0846 43.3567 35.8273 43.3567 37.5536 43.3567C37.5536 42.3614 37.5437 41.3893 37.5566 40.4173C37.5675 39.5949 37.839 39.3196 38.6596 39.3181C42.2857 39.3116 45.9118 39.3121 49.5377 39.3179C50.237 39.3191 50.6364 39.6318 50.6013 40.1525C50.5565 40.8179 50.1011 40.9794 49.5198 40.9711C48.8235 40.9612 48.1269 40.9689 47.3469 40.9689C47.3469 41.4249 47.3469 41.8155 47.3469 42.2058C47.3469 42.5745 47.3469 42.9431 47.3469 43.3543C53.5578 43.3543 59.7947 43.3543 66.0858 43.3543C66.1023 43.1853 66.1346 43.0072 66.1348 42.8289C66.1383 40.6764 66.129 38.5237 66.1425 36.3714C66.146 35.7918 66.0174 35.3281 65.3626 35.2514C64.8384 35.1899 64.52 35.6268 64.5054 36.3693C64.4966 36.8137 64.5127 37.259 64.4887 37.7023C64.4621 38.1989 64.1816 38.4918 63.6804 38.4828C63.1833 38.4738 62.9043 38.1804 62.8935 37.6805C62.8801 37.0726 62.8665 36.4625 62.9004 35.8561C62.9658 34.6891 63.8934 33.7533 65.0557 33.6404C66.2782 33.5219 67.3713 34.2425 67.6689 35.3966C67.7552 35.7314 67.7814 36.0894 67.7831 36.437C67.7934 38.4725 67.7882 40.508 67.7882 42.5437C67.7882 42.7963 67.7882 43.0488 67.7882 43.3965C68.2813 43.3965 68.7176 43.386 69.1532 43.3987C69.9442 43.422 70.2137 43.6818 70.2142 44.4575C70.2187 50.0261 70.2148 55.5945 70.2193 61.163C70.2197 61.7272 70.0468 62.1616 69.4188 62.1718C68.7825 62.1819 68.5998 61.7375 68.5998 61.1801C68.5995 58.817 68.5989 56.454 68.5985 54.0907C68.5991 53.8181 68.5991 53.5443 68.5991 53.2389ZM48.9635 45.102C39.6954 45.102 30.4732 45.102 21.2542 45.102C21.2542 52.1685 21.2542 59.1793 21.2542 66.2304C22.3269 66.2304 23.3645 66.2304 24.4809 66.2304C24.4809 65.9214 24.4809 65.6469 24.4809 65.3724C24.4809 61.1844 24.4792 56.9966 24.4824 52.8086C24.4831 51.845 24.707 51.588 25.5967 51.5872C31.9361 51.5812 38.2757 51.5814 44.615 51.587C45.4839 51.5878 45.7299 51.848 45.734 52.7338C45.7419 54.4183 45.7366 56.1028 45.7357 57.7873C45.7357 57.9041 45.7387 58.0226 45.7215 58.1375C45.65 58.6143 45.3845 58.9325 44.8907 58.9188C44.4045 58.9053 44.1272 58.5963 44.0992 58.1047C44.0807 57.7781 44.0926 57.4498 44.0926 57.1222C44.0923 55.8418 44.0925 54.5613 44.0925 53.2543C38.0718 53.2543 32.1236 53.2543 26.1624 53.2543C26.1624 56.5196 26.1624 59.7371 26.1624 62.9707C32.1493 62.9707 38.0987 62.9707 44.1002 62.9707C44.1002 62.3911 44.0085 61.8333 44.1352 61.3305C44.2091 61.0374 44.6126 60.674 44.9047 60.6373C45.1412 60.6075 45.4929 60.9774 45.6793 61.2485C45.8028 61.4283 45.7344 61.7467 45.7351 62.0032C45.7385 63.4001 45.7368 64.797 45.7368 66.2304C46.8532 66.2304 47.8908 66.2304 48.9635 66.2304C48.9635 59.1795 48.9635 52.1686 48.9635 45.102ZM19.5483 66.2291C19.5483 62.9681 19.5483 59.7706 19.5483 56.5387C13.5654 56.5387 7.62034 56.5387 1.65671 56.5387C1.65671 59.7946 1.65671 62.991 1.65671 66.2291C7.62352 66.2291 13.5525 66.2291 19.5483 66.2291ZM19.527 54.8173C19.527 51.5486 19.527 48.3189 19.527 45.0909C13.5399 45.0909 7.6119 45.0909 1.66421 45.0909C1.66421 48.3526 1.66421 51.5696 1.66421 54.8173C7.63834 54.8173 13.5665 54.8173 19.527 54.8173ZM68.5425 51.5521C68.5425 49.35 68.5425 47.2171 68.5425 45.0858C62.5571 45.0858 56.6287 45.0858 50.6921 45.0858C50.6921 47.2578 50.6921 49.3897 50.6921 51.5521C56.6595 51.5521 62.5665 51.5521 68.5425 51.5521ZM58.7411 66.2709C58.7411 61.8538 58.7411 57.5482 58.7411 53.2496C56.0216 53.2496 53.3662 53.2496 50.6846 53.2496C50.6846 57.599 50.6846 61.9053 50.6846 66.2709C51.1065 66.2709 51.476 66.2709 51.8456 66.2709C54.1325 66.2709 56.4195 66.2709 58.7411 66.2709ZM31.0239 38.5623C28.8133 38.5623 26.6806 38.5623 24.5117 38.5623C24.5117 39.7297 24.4597 40.8478 24.5283 41.9583C24.5814 42.8158 25.2142 43.3608 26.0666 43.383C27.186 43.412 28.307 43.4124 29.4264 43.3848C30.332 43.3625 30.9772 42.7507 31.0136 41.846C31.0569 40.7756 31.0239 39.7019 31.0239 38.5623ZM6.57052 38.5561C6.57052 39.2716 6.50002 39.95 6.58459 40.6085C6.7884 42.1963 8.06059 43.3269 9.61609 43.3903C11.2725 43.4576 12.65 42.4376 12.9609 40.8123C13.0985 40.0925 13.0537 39.3378 13.0938 38.5563C10.8648 38.5561 8.72977 38.5561 6.57052 38.5561ZM44.0718 64.7218C38.0585 64.7218 32.1116 64.7218 26.1688 64.7218C26.1688 65.2582 26.1688 65.738 26.1688 66.2163C32.16 66.2163 38.1073 66.2163 44.0718 66.2163C44.0718 65.6998 44.0718 65.2376 44.0718 64.7218ZM39.1869 41.0011C39.1869 41.4916 39.1794 41.9302 39.1886 42.3684C39.2041 43.1156 39.4607 43.3854 40.197 43.3931C41.3405 43.4049 42.4845 43.3931 43.628 43.3976C45.6161 43.4053 45.836 43.6636 45.7141 41.1504C45.7121 41.1099 45.6718 41.0711 45.632 41.0011C43.5309 41.0011 41.4131 41.0011 39.1869 41.0011Z" fill="white"/>
<path d="M35.0934 29.5241C30.9082 29.5241 26.7229 29.5254 22.5377 29.5234C21.4183 29.5228 21.2216 29.325 21.2196 28.2264C21.2182 27.4314 21.2451 26.6351 21.2104 25.8416C21.1867 25.2982 21.3876 24.9199 21.7888 24.5677C23.8798 22.7325 25.946 20.8689 28.0406 19.0378C28.4267 18.7003 28.5834 18.3562 28.5815 17.8384C28.5624 12.6705 28.5694 7.50242 28.5705 2.33436C28.5707 1.11017 28.7317 0.947044 29.9306 0.946669C33.4378 0.945919 36.945 0.944794 40.4522 0.947606C41.427 0.948356 41.6452 1.16304 41.6458 2.14986C41.6495 7.36461 41.6552 12.5795 41.6368 17.7943C41.6349 18.332 41.7898 18.6995 42.1972 19.0549C44.2241 20.8213 46.2138 22.6305 48.2437 24.3934C48.7816 24.8606 49.0696 25.349 49.0113 26.0825C48.9523 26.8262 49.001 27.5782 48.9975 28.3264C48.993 29.2832 48.7614 29.5213 47.789 29.5224C43.5573 29.5265 39.3255 29.5241 35.0934 29.5241ZM45.821 24.6285C45.8443 24.5692 45.8677 24.5098 45.891 24.4505C45.7621 24.3534 45.626 24.2645 45.5058 24.1579C43.8797 22.7139 42.2687 21.2522 40.6224 19.8315C40.1694 19.4407 40.0027 19.0256 40.0048 18.4385C40.0224 13.4334 40.0149 8.42811 40.0149 3.42279C40.0149 3.16911 40.0149 2.91542 40.0149 2.61786C36.7235 2.61786 33.4869 2.61786 30.2029 2.61786C30.2029 2.92104 30.2029 3.17623 30.2029 3.43123C30.2029 7.75817 30.0823 12.09 30.2548 16.4102C30.3384 18.5049 29.8177 19.9935 28.0835 21.2124C26.7418 22.1555 25.5979 23.3797 24.2467 24.5854C24.6339 24.6052 24.858 24.6262 25.082 24.6268C26.4384 24.6302 27.7948 24.6208 29.1512 24.6328C29.856 24.6392 30.2417 24.9555 30.1903 25.4809C30.1295 26.1043 29.7015 26.2575 29.145 26.2545C27.4145 26.2451 25.6839 26.2513 23.9533 26.2513C23.6107 26.2513 23.2684 26.2513 22.9228 26.2513C22.9228 26.8464 22.9228 27.3467 22.9228 27.8565C31.0783 27.8565 39.1807 27.8565 47.2981 27.8565C47.2981 27.3116 47.2981 26.8115 47.2981 26.2513C46.997 26.2513 46.7445 26.2513 46.4921 26.2513C42.3294 26.2513 38.1667 26.2517 34.004 26.2504C33.7706 26.2504 33.4682 26.3254 33.3187 26.2097C33.057 26.0068 32.7446 25.6916 32.7272 25.4066C32.7127 25.1724 33.0555 24.851 33.3148 24.6868C33.5034 24.5674 33.8145 24.6302 34.0708 24.63C37.7424 24.6275 41.4138 24.6283 45.0855 24.6283C45.3307 24.6285 45.576 24.6285 45.821 24.6285Z" fill="white"/>
<path d="M12.2494 0.946258C15.8979 0.946258 19.5465 0.945508 23.195 0.94682C24.2983 0.947195 24.4796 1.11913 24.48 2.18751C24.482 7.89501 24.482 13.6025 24.4798 19.31C24.4794 20.3476 24.2912 20.5374 23.2459 20.5378C15.902 20.5404 8.55823 20.5406 1.21423 20.5376C0.188415 20.5372 0.00110291 20.3375 0.000915411 19.2899C-0.000209589 13.5824 -0.000397089 7.87494 0.000915411 2.16744C0.00110291 1.14051 0.195916 0.94757 1.23354 0.947008C4.90554 0.945133 8.57754 0.946258 12.2494 0.946258ZM22.8388 18.8771C22.8388 13.4144 22.8388 8.04219 22.8388 2.62007C19.5746 2.62007 16.3419 2.62007 13.1045 2.62007C13.1045 8.06301 13.1045 13.4548 13.1045 18.8771C16.3586 18.8771 19.572 18.8771 22.8388 18.8771ZM11.3852 2.63151C8.09229 2.63151 4.8806 2.63151 1.6736 2.63151C1.6736 8.08682 1.6736 13.4797 1.6736 18.8587C4.94285 18.8587 8.1566 18.8587 11.3852 18.8587C11.3852 13.4248 11.3852 8.04838 11.3852 2.63151Z" fill="white"/>
<path d="M57.9585 0.946288C61.6305 0.946288 65.3023 0.945163 68.9743 0.94685C70.0207 0.947413 70.2165 1.13754 70.2168 2.15847C70.2183 7.88941 70.2185 13.6202 70.2167 19.3511C70.2163 20.3268 70.0083 20.5368 69.0114 20.5372C61.6442 20.5404 54.2769 20.5404 46.9097 20.5367C45.9502 20.5361 45.7397 20.3274 45.7391 19.389C45.7357 13.6113 45.7354 7.83372 45.7395 2.05591C45.74 1.16435 45.9656 0.948538 46.8727 0.9476C50.5678 0.944413 54.263 0.946288 57.9585 0.946288ZM47.3884 2.61804C47.3884 8.0561 47.3884 13.4452 47.3884 18.8593C50.6593 18.8593 53.8894 18.8593 57.1067 18.8593C57.1067 13.4124 57.1067 8.02235 57.1067 2.61804C53.8442 2.61804 50.6293 2.61804 47.3884 2.61804ZM58.8461 2.61447C58.8461 8.05329 58.8461 13.4469 58.8461 18.8713C62.0988 18.8713 65.3103 18.8713 68.5535 18.8713C68.5535 13.4355 68.5535 8.04485 68.5535 2.61447C65.2935 2.61447 62.0793 2.61447 58.8461 2.61447Z" fill="white"/>
<path d="M62.8717 59.7309C62.8717 60.0345 62.9749 60.3954 62.8459 60.6272C62.6801 60.9249 62.3274 61.3059 62.0565 61.305C61.7857 61.304 61.347 60.914 61.2829 60.6272C61.1586 60.0709 61.1588 59.4487 61.2793 58.8909C61.3436 58.5933 61.7316 58.2245 62.0357 58.1531C62.5003 58.0438 62.8072 58.4133 62.8691 58.8905C62.9049 59.1662 62.8757 59.4504 62.8757 59.7307C62.8744 59.7309 62.873 59.7309 62.8717 59.7309Z" fill="white"/>
<path d="M35.1043 54.8563C36.6461 54.8563 38.1881 54.8664 39.7299 54.851C40.3187 54.8452 40.803 55.0069 40.8078 55.6586C40.8127 56.3139 40.3188 56.4817 39.7378 56.4808C36.654 56.4761 33.5702 56.4761 30.4865 56.4808C29.9085 56.4817 29.4478 56.3257 29.3994 55.6657C29.3621 55.1561 29.7729 54.8606 30.4788 54.858C32.0205 54.8525 33.5625 54.8565 35.1043 54.8563Z" fill="white"/>
<path d="M41.6721 45.8788C43.0222 45.8917 44.1052 46.9978 44.088 48.3455C44.0709 49.6813 42.9409 50.7868 41.6094 50.7703C40.2808 50.7538 39.1669 49.6089 39.1911 48.2846C39.2158 46.9335 40.3168 45.8657 41.6721 45.8788ZM40.8006 48.459C40.9952 48.6268 41.2427 48.9949 41.5663 49.0828C42.0279 49.2082 42.3718 48.8945 42.4224 48.3949C42.4731 47.8967 42.2186 47.5777 41.7212 47.5277C41.2284 47.478 40.9318 47.7356 40.8006 48.459Z" fill="white"/>
<path d="M26.1274 48.3152C26.1326 46.9614 27.2209 45.8778 28.5744 45.8788C29.9271 45.8797 31.0264 46.9721 31.0254 48.3148C31.0245 49.6457 29.9079 50.7641 28.5733 50.7709C27.2486 50.7774 26.1223 49.6466 26.1274 48.3152ZM28.5319 47.507C28.0751 47.5768 27.7654 47.817 27.7871 48.3313C27.8081 48.8298 28.1014 49.1193 28.5951 49.1062C29.0867 49.0931 29.3698 48.794 29.3623 48.2927C29.3544 47.7806 29.0359 47.5524 28.5319 47.507Z" fill="white"/>
<path d="M37.5399 48.2932C37.5504 49.6504 36.462 50.7594 35.1101 50.7688C33.801 50.778 32.6949 49.6888 32.6739 48.3699C32.6518 46.989 33.7061 45.8929 35.07 45.879C36.4507 45.8646 37.5292 46.9189 37.5399 48.2932ZM35.2633 47.3989C35.1562 47.3991 35.0492 47.3994 34.9421 47.3996C34.7263 47.6998 34.3796 47.9788 34.3262 48.3056C34.2525 48.756 34.5838 49.0946 35.0766 49.1089C35.6046 49.1242 35.9584 48.7888 35.8879 48.3C35.841 47.9762 35.4823 47.6976 35.2633 47.3989Z" fill="white"/>
<path d="M10.5834 62.1869C10.0477 62.186 9.51146 62.1991 8.97634 62.1821C8.48096 62.1663 8.18247 61.8798 8.17328 61.3944C8.1639 60.9035 8.4654 60.5994 8.95534 60.5891C10.0494 60.5658 11.1446 60.5668 12.2388 60.585C12.7265 60.593 13.0451 60.8859 13.0434 61.3732C13.0417 61.8913 12.7196 62.1779 12.1908 62.186C11.6552 62.1944 11.1193 62.1881 10.5834 62.1869Z" fill="white"/>
<path d="M10.5832 49.1261C11.1199 49.1261 11.6572 49.11 12.1929 49.1308C12.7076 49.1509 13.0438 49.4299 13.044 49.9566C13.0442 50.4508 12.7134 50.7457 12.2407 50.7583C11.1452 50.7875 10.0474 50.79 8.95217 50.7546C8.48155 50.7394 8.16261 50.4366 8.17198 49.9354C8.18136 49.4398 8.49298 49.1623 8.97373 49.1357C9.50867 49.1061 10.0466 49.1289 10.5832 49.1289C10.5832 49.128 10.5832 49.1271 10.5832 49.1261Z" fill="white"/>
<path d="M59.619 49.1199C59.3388 49.119 59.0574 49.136 58.779 49.115C58.2877 49.0783 57.9994 48.8019 57.9956 48.306C57.992 47.8387 58.2737 47.5509 58.7248 47.5203C59.3055 47.4808 59.8927 47.4783 60.4732 47.5172C60.9572 47.5496 61.2493 47.8515 61.2198 48.3553C61.1908 48.8531 60.8784 49.0996 60.3894 49.119C60.1329 49.1293 59.8757 49.121 59.619 49.1199Z" fill="white"/>
<path d="M57.981 59.7377C57.9812 59.9713 57.9868 60.2051 57.9801 60.4387C57.9647 60.9791 57.7346 61.3503 57.1494 61.3522C56.5969 61.3539 56.3634 60.9907 56.3394 60.4895C56.3158 60 56.3213 59.508 56.3383 59.0179C56.3561 58.5109 56.6042 58.1402 57.1348 58.131C57.7003 58.1212 57.9626 58.4897 57.9793 59.0368C57.9866 59.27 57.9808 59.5038 57.981 59.7377Z" fill="white"/>
<path d="M15.4847 10.7897C15.4839 11.0694 15.5072 11.3514 15.4787 11.6282C15.4312 12.0881 15.1556 12.3493 14.6906 12.3487C14.2271 12.3482 13.9312 12.0902 13.9044 11.6293C13.8707 11.0484 13.812 10.4467 13.9288 9.88856C13.9908 9.59212 14.3658 9.21712 14.6627 9.14756C15.1213 9.04012 15.441 9.38474 15.4809 9.88106C15.5053 10.1822 15.4854 10.4867 15.4847 10.7897Z" fill="white"/>
<path d="M8.99359 10.6815C8.99359 10.4017 8.89534 10.0644 9.01702 9.85572C9.19084 9.55816 9.50715 9.19647 9.79834 9.1616C10.0284 9.13404 10.488 9.52516 10.5369 9.78804C10.6501 10.3961 10.6087 11.0411 10.5675 11.667C10.5371 12.1295 10.2133 12.3688 9.7509 12.347C9.28684 12.3253 9.02752 12.0498 8.99434 11.5907C8.97259 11.289 8.99021 10.9847 8.99021 10.6815C8.99134 10.6815 8.99246 10.6815 8.99359 10.6815Z" fill="white"/>
<path d="M54.7363 10.74C54.7365 10.437 54.6345 10.0781 54.7622 9.84505C54.9251 9.5473 55.2572 9.19124 55.5472 9.16143C55.7788 9.13762 56.2303 9.53305 56.2785 9.79799C56.3895 10.407 56.3889 11.0632 56.2794 11.6726C56.2322 11.9349 55.8317 12.2546 55.539 12.3231C55.1023 12.4252 54.7929 12.1106 54.7423 11.6479C54.7095 11.3488 54.7361 11.043 54.7363 10.74Z" fill="white"/>
<path d="M61.2229 10.7379C61.2229 11.0411 61.2529 11.3478 61.2159 11.6463C61.1595 12.1018 60.8548 12.4248 60.4164 12.3226C60.1241 12.2546 59.7277 11.9379 59.6762 11.6741C59.562 11.0902 59.5526 10.4529 59.6679 9.87071C59.7255 9.58009 60.1196 9.20977 60.4183 9.14733C60.8773 9.05133 61.1889 9.40215 61.224 9.89846C61.2435 10.1769 61.2276 10.458 61.2276 10.7377C61.2257 10.7379 61.2244 10.7379 61.2229 10.7379Z" fill="white"/>
</svg>
