<svg width="20" height="19" viewBox="0 0 20 19" fill="none" xmlns="http://www.w3.org/2000/svg">
<path d="M18.6552 6.36043L13.1196 5.77136L10.7642 0.707233C10.6467 0.353955 10.1751 0.118164 9.82183 0.118164C9.46856 0.118164 8.99697 0.353955 8.87949 0.707233L6.52409 5.77136L0.98842 6.36043C0.517657 6.36043 0.281865 6.71371 0.0460735 7.06699C-0.0714102 7.42027 0.0460738 7.89185 0.281866 8.12682L4.40459 11.8962L3.22646 17.4319C3.10897 17.7852 3.34394 18.2567 3.69722 18.4917C3.93301 18.7267 4.1688 18.845 4.28629 18.845C4.52208 18.845 4.63957 18.845 4.75705 18.7275L9.70382 15.9006L14.533 18.7275C14.8863 18.9633 15.3579 18.9633 15.7112 18.61C16.0644 18.3742 16.1819 17.9035 16.1819 17.5502L15.0038 12.0145L19.1265 8.24513C19.4798 8.00934 19.5973 7.53857 19.3623 7.18529C19.3623 6.71371 19.009 6.47792 18.6558 6.36044L18.6552 6.36043Z" fill="#4A8780"/>
</svg>
